<?xml version="1.0" encoding="UTF-8"?>
<svg version="1.1" xmlns="http://www.w3.org/2000/svg" width="428" height="513">
<path d="M0 0 C1.14314805 0.00056958 1.14314805 0.00056958 2.30939001 0.00115067 C3.18571335 -0.00084038 4.06203668 -0.00283143 4.96491528 -0.00488281 C6.42548805 -0.00051355 6.42548805 -0.00051355 7.91556734 0.00394398 C8.94139341 0.00308955 9.96721947 0.00223513 11.02413118 0.00135481 C14.48974582 -0.00030307 17.95531293 0.00522641 21.42092317 0.01067311 C23.89394562 0.01095494 26.36696816 0.01079732 28.83999056 0.0102306 C34.17876297 0.01000228 39.51752035 0.0128537 44.85628885 0.01846844 C52.57533511 0.02658123 60.29437546 0.02919843 68.01342552 0.03045643 C80.5358174 0.0326473 93.05820279 0.03930833 105.58059114 0.04875904 C117.74790852 0.05793226 129.91522413 0.06501354 142.08254427 0.06926686 C142.83201743 0.06952958 143.5814906 0.0697923 144.35367507 0.07006299 C148.11340631 0.07136799 151.87313757 0.0726317 155.63286883 0.07387489 C186.84404466 0.08424859 218.05521243 0.10194197 249.26638216 0.1241985 C249.28951008 7.92995045 249.30729954 15.73569444 249.31819433 23.54147202 C249.32342218 27.16565809 249.33051803 30.7898208 249.34182161 34.41399342 C249.352654 37.90879824 249.35865974 41.40358053 249.3612594 44.89840084 C249.36401767 46.88659239 249.37182903 48.87477481 249.37967867 50.86295277 C249.3797542 52.06412235 249.37982973 53.26529194 249.37990755 54.50286061 C249.38212816 55.56653355 249.38434877 56.63020649 249.38663667 57.72611195 C249.26638216 60.1241985 249.26638216 60.1241985 248.26638216 61.1241985 C245.86350535 61.23424101 243.4887476 61.27915487 241.08484834 61.28241688 C240.32445318 61.28735486 239.56405802 61.29229283 238.78062057 61.29738045 C236.21329538 61.31283144 233.64599533 61.3211365 231.07863802 61.32952076 C229.24599922 61.33909333 227.41336266 61.34910303 225.58072847 61.35951954 C220.58922559 61.3866421 215.59771319 61.40761173 210.60617703 61.42752153 C205.39577206 61.44933591 200.1853967 61.47674677 194.97501558 61.50357777 C185.10109337 61.55356636 175.22715478 61.59848223 165.35320044 61.64160013 C154.11516113 61.69091993 142.87715152 61.74585749 131.6391409 61.80127972 C108.51491429 61.9151944 85.39066047 62.02127095 62.26638216 62.1241985 C62.26638216 87.5341985 62.26638216 112.9441985 62.26638216 139.1241985 C76.63298372 139.10679615 76.63298372 139.10679615 91.28981966 139.08904225 C97.34190326 139.08393532 103.39398531 139.07908026 109.44606966 139.07537037 C119.06130944 139.06942908 128.67654047 139.06243213 138.29177278 139.04875904 C145.29345596 139.03880721 152.29513207 139.03234387 159.29682213 139.03011 C163.00584509 139.02880375 166.71484782 139.02572324 170.42386431 139.01846844 C174.55936775 139.01044467 178.6948358 139.01020768 182.830347 139.01067311 C184.06680467 139.00707783 185.30326235 139.00348255 186.57718843 138.99977833 C187.69902025 139.00115299 188.82085207 139.00252766 189.97667879 139.00394398 C190.95562294 139.00302219 191.93456709 139.00210039 192.94317621 139.00115067 C195.26638216 139.1241985 195.26638216 139.1241985 197.26638216 140.1241985 C197.26558656 140.85288136 197.26479097 141.58156422 197.26397127 142.33232838 C197.26174328 149.2736616 197.28869577 156.21436755 197.34666055 163.15544087 C197.37546461 166.72218614 197.39383582 170.28828698 197.38649935 173.85515553 C197.3625347 189.32673537 197.4728345 202.91752846 204.26638216 217.1241985 C205.32424476 219.87809998 206.27820238 222.66458641 207.23122591 225.45622975 C207.72115508 226.85527518 208.2121246 228.25395673 208.7041263 229.65227467 C208.94905824 230.35210469 209.19399019 231.0519347 209.44634432 231.77297169 C214.54058959 246.32721569 214.54058959 246.32721569 219.82888216 260.8116985 C222.9152188 269.09359312 225.8766828 277.41880432 228.82888216 285.7491985 C229.06866792 286.42536213 229.30845369 287.10152577 229.55550569 287.79817921 C231.77310943 294.05284557 233.98777398 300.30839417 236.16481966 306.5773235 C239.72674331 317.05345691 239.72674331 317.05345691 244.26638216 327.1241985 C245.25638216 327.4541985 246.24638216 327.7841985 247.26638216 328.1241985 C247.42711214 327.57199635 247.58784212 327.0197942 247.7534427 326.45085865 C250.02817594 318.74468317 252.53572576 311.1198851 255.07888216 303.4991985 C255.3237134 302.76431202 255.56854463 302.02942555 255.820795 301.27226979 C263.75737686 277.47716793 271.97889822 253.77741691 280.15281099 230.06307179 C283.93220112 219.09794571 287.70362967 208.13009314 291.47220796 197.16124684 C294.39784434 188.64690418 297.33005828 180.1348598 300.26638216 171.6241985 C308.55027954 147.60815367 316.79933304 123.58061452 325.00368685 99.53728443 C329.22631454 87.1636391 333.46042712 74.79398675 337.70730013 62.42864186 C340.49242141 54.3162983 343.26240303 46.19896882 346.02028841 38.0773235 C346.97724848 35.26257433 347.93441028 32.44789384 348.8916263 29.6332317 C349.51015402 27.81244978 350.12768815 25.99132999 350.74416536 24.16985279 C351.60457362 21.62774821 352.46836444 19.08681488 353.33278841 16.5460735 C353.58540941 15.79658436 353.83803041 15.04709522 354.0983066 14.2748943 C358.23221116 2.1583695 358.23221116 2.1583695 360.26638216 0.1241985 C362.26069946 0.03014708 364.25837759 0.006766 366.25490755 0.01067311 C367.53616014 0.01074864 368.81741274 0.01082417 370.13749117 0.01090199 C371.54634064 0.0160094 372.95518971 0.02122541 374.36403841 0.02654225 C375.7975045 0.02840647 377.23097123 0.02983035 378.66443819 0.03082997 C382.44398173 0.03465477 386.22348706 0.04448473 390.00301546 0.05553395 C393.85707514 0.06574887 397.71114098 0.07032776 401.56521028 0.07537037 C409.13228502 0.08610704 416.69932825 0.10318301 424.26638216 0.1241985 C423.67193678 5.20110099 422.95880764 9.6452282 421.26638216 14.4991985 C421.05199495 15.12165455 420.83760774 15.74411061 420.61672395 16.38542897 C420.12240703 17.81713854 419.62434924 19.24755994 419.12331575 20.67693287 C418.16933127 23.40136034 417.22704967 26.12968147 416.28591341 28.8585735 C414.76914604 33.25322181 413.24791018 37.64628808 411.72341341 42.038261 C409.2279067 49.2301935 406.74629348 56.42687634 404.26638216 63.6241985 C403.42139022 66.07474007 402.57633842 68.525261 401.73122591 70.975761 C400.52886838 74.46217528 399.32680883 77.94868941 398.12624544 81.43572193 C393.50688831 94.85123239 388.81743361 108.24008699 384.06066316 121.60738331 C379.75858674 133.69980205 375.53996807 145.81989097 371.3591556 157.9547649 C369.50019684 163.34640981 367.63288777 168.73516253 365.76638216 174.1241985 C363.54811851 180.52927332 361.33099244 186.93472083 359.12185091 193.3429485 C354.60946667 206.42242673 350.03374476 219.47841082 345.42208284 232.52312428 C340.26767021 247.10361589 335.16763121 261.70223568 330.12966341 276.32341725 C326.2366875 287.61296179 322.2971451 298.88303003 318.26638216 310.1241985 C313.87966602 322.35949289 309.60251349 334.62992763 305.37087435 346.91960865 C303.1630325 353.32547338 300.94162029 359.72665031 298.72243685 366.12859303 C296.90446172 371.37726315 295.09187841 376.62768593 293.29294771 381.88291126 C292.39850816 384.49566469 291.50233121 387.10782114 290.60619539 389.71999317 C289.97423323 391.56479051 289.34499359 393.41051979 288.71584505 395.25627857 C286.66457644 401.234683 284.50847109 407.13442051 282.12209505 412.98699147 C281.00857839 415.7680827 280.06137612 418.58616603 279.14138216 421.4366985 C276.78809173 428.62855741 274.33711573 435.7862569 271.87069124 442.93996388 C271.21969813 444.82832059 270.56992915 446.71709916 269.92019075 448.60588795 C267.71782259 454.99000588 265.47489835 461.35569317 263.15334505 467.69744068 C261.91655812 471.08132785 260.71474291 474.4764933 259.51638216 477.8741985 C259.27250765 478.56521656 259.02863313 479.25623463 258.77736849 479.96819264 C257.21814482 484.39476538 255.67418925 488.82648004 254.13747591 493.26091725 C253.77557161 494.30473561 253.41366731 495.34855397 253.04079622 496.42400318 C252.32400954 498.49321758 251.60848595 500.56287 250.89431185 502.63298756 C250.56721224 503.57754811 250.24011263 504.52210865 249.90310091 505.49529225 C249.61136995 506.34019215 249.31963899 507.18509205 249.0190677 508.05559498 C248.26638216 510.1241985 248.26638216 510.1241985 247.26638216 512.1241985 C246.27638216 512.1241985 245.28638216 512.1241985 244.26638216 512.1241985 C243.86548372 511.0310735 243.46458528 509.9379485 243.05153841 508.8116985 C240.06718664 500.68733214 237.06356836 492.57105648 234.01149935 484.47185475 C230.46057799 475.04813668 226.97663367 465.60429148 223.57888216 456.1241985 C219.33983253 444.30019696 215.06320426 432.51066388 210.32888216 420.8741985 C207.71904983 414.44073719 205.41316334 407.92222997 203.14895052 401.36028248 C200.6617763 394.18159129 198.04318593 387.05606065 195.39138216 379.9366985 C192.04648071 370.95523081 188.74936589 361.95907461 185.51638216 352.9366985 C181.88861395 342.82041663 178.15663445 332.75010074 174.34792513 322.70085865 C168.44330951 307.10348653 162.74758886 291.43556793 157.09595674 275.74532276 C156.82477525 274.99250019 156.55359377 274.23967762 156.27419466 273.46404225 C156.00780687 272.72451313 155.74141908 271.98498402 155.46695894 271.22304493 C150.99693883 258.82022786 146.3991593 246.4669989 141.76638216 234.1241985 C140.63356149 231.10294091 139.50089922 228.08162409 138.36843294 225.06023365 C137.64181872 223.12442005 136.91366359 221.18918404 136.18386263 219.25456959 C135.18609079 216.60858856 134.19433025 213.96042794 133.20388216 211.3116985 C132.90481966 210.52343678 132.60575716 209.73517506 132.29763216 208.92302662 C131.15721944 205.85919054 130.26638216 203.42160804 130.26638216 200.1241985 C107.49638216 200.1241985 84.72638216 200.1241985 61.26638216 200.1241985 C61.59638216 203.4241985 61.92638216 206.7241985 62.26638216 210.1241985 C62.34687784 212.14965522 62.39647404 214.17684276 62.40009493 216.20389515 C62.4064924 217.84615071 62.4064924 217.84615071 62.41301912 219.52158314 C62.41233934 221.2699522 62.41233934 221.2699522 62.41164583 223.05364186 C62.41500444 224.30849385 62.41836305 225.56334584 62.42182344 226.85622364 C62.42964535 230.26689986 62.43299776 233.67751518 62.43363923 237.0881961 C62.43435335 239.22134476 62.43649427 241.35448715 62.43913645 243.48763424 C62.44835561 250.93460832 62.4524748 258.3815646 62.45168489 265.8285442 C62.4510819 272.7655961 62.46168566 279.7025708 62.47742856 286.63960314 C62.49048894 292.60753419 62.49586957 298.57543991 62.49522948 304.54338515 C62.49497447 308.10308017 62.49782879 311.66270615 62.50840753 315.2223869 C62.51985702 319.18179469 62.51535104 323.14109517 62.50930208 327.10051686 C62.51492159 328.28026585 62.52054109 329.46001484 62.52633089 330.6755138 C62.5221364 331.75061207 62.51794191 332.82571034 62.51362032 333.93338734 C62.51416508 334.86892413 62.51470985 335.80446093 62.51527113 336.76834732 C62.26638216 339.1241985 62.26638216 339.1241985 60.26638216 342.1241985 C57.67884248 342.49169117 57.67884248 342.49169117 54.36379427 342.48064381 C52.50693247 342.48514546 52.50693247 342.48514546 50.61255831 342.48973805 C49.25627663 342.47773324 47.89999911 342.4652503 46.54372591 342.4523235 C45.15892676 342.44926676 43.77412454 342.44738999 42.38932222 342.44664723 C39.48648759 342.44204181 36.58393002 342.42760605 33.68117708 342.4054485 C29.952837 342.37713947 26.22471509 342.36623474 22.49627775 342.3617664 C19.63705172 342.35761788 16.77787017 342.34780562 13.91866678 342.33589131 C12.54349113 342.33017854 11.16831117 342.32542318 9.79312891 342.32162434 C7.87525183 342.31478049 5.95740675 342.30025381 4.03957552 342.28533131 C2.9464052 342.27850331 1.85323488 342.2716753 0.72693819 342.26464039 C-1.73361784 342.1241985 -1.73361784 342.1241985 -2.73361784 341.1241985 C-2.83201153 339.31633458 -2.85917413 337.50457744 -2.85945898 335.69403797 C-2.86206673 334.50830913 -2.86467448 333.32258028 -2.86736125 332.10092026 C-2.86513053 330.7815928 -2.8628998 329.46226534 -2.86060148 328.10295826 C-2.86175234 326.70037536 -2.86333963 325.29779276 -2.86532873 323.8952108 C-2.86952692 320.02285756 -2.86742917 316.15052877 -2.86434251 312.27817541 C-2.86209061 308.1090807 -2.86556697 303.93999035 -2.86832243 299.77089649 C-2.87278138 291.59646868 -2.87180311 283.42205002 -2.86890979 275.24762183 C-2.86665625 268.60720627 -2.86634302 261.96679329 -2.86743361 255.32637745 C-2.86758684 254.38317884 -2.86774007 253.43998023 -2.86789795 252.46819985 C-2.86821766 250.55242711 -2.86854187 248.63665438 -2.86887054 246.72088164 C-2.8717257 228.73434841 -2.86843775 210.74782027 -2.86307018 192.76128787 C-2.8586021 177.31031542 -2.85937803 161.85935049 -2.86398894 146.40837818 C-2.86933407 128.48852467 -2.87145101 110.56867562 -2.86837667 92.64882141 C-2.86805811 90.73988746 -2.86774373 88.8309535 -2.86743361 86.92201954 C-2.86727933 85.98265775 -2.86712506 85.04329596 -2.86696611 84.07546866 C-2.86610077 77.43897037 -2.86756419 70.80247491 -2.86991316 64.16597706 C-2.87271068 56.08413365 -2.87197391 48.00229995 -2.86663242 39.92045766 C-2.86399475 35.79282826 -2.86299143 31.66521509 -2.86628157 27.53758579 C-2.86924321 23.76516647 -2.86765395 19.99277856 -2.86230402 16.22036213 C-2.86064303 14.19606697 -2.86393857 12.17176967 -2.86736125 10.14747673 C-2.8647535 8.96174789 -2.86214575 7.77601904 -2.85945898 6.55435902 C-2.85929663 5.52244151 -2.85913428 4.49052401 -2.85896701 3.42733628 C-2.68289378 0.19220578 -2.68289378 0.19220578 0 0 Z " fill="#CBCBCD" transform="translate(2.733617842197418,-0.12419849634170532)"/>
<path d="M0 0 C0.33 0 0.66 0 1 0 C1.33 35.31 1.66 70.62 2 107 C2.33 107 2.66 107 3 107 C3 183.56 3 260.12 3 339 C22.47 339 41.94 339 62 339 C62 293.79 62 248.58 62 202 C62.33 202 62.66 202 63 202 C63 247.87 63 293.74 63 341 C42.54 341 22.08 341 1 341 C-0 340 -0 340 -0.1241985 337.69571155 C-0.12381878 336.66325198 -0.12343906 335.6307924 -0.12304783 334.56704617 C-0.1260344 332.78752785 -0.1260344 332.78752785 -0.12908131 330.97205967 C-0.12622772 329.63871647 -0.12328212 328.30537346 -0.12025452 326.97203064 C-0.1206901 325.56873526 -0.12156475 324.16543996 -0.12284368 322.7621451 C-0.12509128 318.88785907 -0.12106377 315.01360041 -0.11606562 311.13931787 C-0.11176507 306.96819899 -0.11320726 302.79708178 -0.1139679 298.6259613 C-0.11449338 291.39318918 -0.111344 284.16042604 -0.10573006 276.92765617 C-0.0976184 266.4701611 -0.09500018 256.01267039 -0.09374207 245.55517251 C-0.09155102 228.59040876 -0.08488951 211.62564981 -0.07543945 194.66088867 C-0.0662667 178.17683944 -0.0591852 161.6927915 -0.05493164 145.20874023 C-0.05466892 144.19342446 -0.05440619 143.17810869 -0.05413551 142.13202577 C-0.05283051 137.03871219 -0.0515668 131.94539859 -0.05032361 126.85208499 C-0.03994935 84.56805334 -0.02232961 42.28402692 0 0 Z " fill="#949495" transform="translate(0,1)"/>
<path d="M0 0 C0.66 0 1.32 0 2 0 C0.75971762 6.17222879 -0.89603589 12.06682122 -3 18 C-3.33 17.01 -3.66 16.02 -4 15 C-4.66 15 -5.32 15 -6 15 C-6.25 12.75 -6.25 12.75 -6 10 C-4.68799596 8.64567325 -3.35368596 7.31266518 -2 6 C-1.27802838 3.39388923 -1.27802838 3.39388923 -1 1 C-0.67 0.67 -0.34 0.34 0 0 Z " fill="#B4B4B6" transform="translate(255,489)"/>
<path d="M0 0 C0.66 0 1.32 0 2 0 C3.19984601 3.12040043 4.38274177 6.24695531 5.5625 9.375 C5.90474609 10.26445312 6.24699219 11.15390625 6.59960938 12.0703125 C7.07817383 13.34648437 7.07817383 13.34648437 7.56640625 14.6484375 C7.86490479 15.43395996 8.16340332 16.21948242 8.47094727 17.02880859 C9 19 9 19 8 21 C5.10067643 18.60490662 4.49831724 16.68754757 4 13 C3.34 13 2.68 13 2 13 C2.33 11.68 2.66 10.36 3 9 C2.34 9 1.68 9 1 9 C0.67 6.03 0.34 3.06 0 0 Z " fill="#A7A8A8" transform="translate(205,217)"/>
<path d="M0 0 C2.475 0.99 2.475 0.99 5 2 C3.68 4.31 2.36 6.62 1 9 C0.01 9 -0.98 9 -2 9 C-2.12375 9.94875 -2.2475 10.8975 -2.375 11.875 C-3 15 -3 15 -5 17 C-3.83348574 11.07136283 -2.24480642 5.61201606 0 0 Z " fill="#A1A1A2" transform="translate(301,178)"/>
<path d="M0 0 C1 2 1 2 0.47094727 4.06298828 C0.17244873 4.89040527 -0.1260498 5.71782227 -0.43359375 6.5703125 C-0.75263672 7.46621094 -1.07167969 8.36210937 -1.40039062 9.28515625 C-1.91375977 10.69087891 -1.91375977 10.69087891 -2.4375 12.125 C-2.94506836 13.54232422 -2.94506836 13.54232422 -3.46289062 14.98828125 C-4.3018906 17.32802766 -5.14784292 19.66502009 -6 22 C-6.33 22 -6.66 22 -7 22 C-6.58411954 15.80481527 -5.39748106 10.73310689 -3 5 C-2.34 5 -1.68 5 -1 5 C-1 4.34 -1 3.68 -1 3 C-1.66 2.67 -2.32 2.34 -3 2 C-2.01 1.34 -1.02 0.68 0 0 Z " fill="#99999B" transform="translate(299,368)"/>
<path d="M0 0 C1.4216868 4.26506039 -0.34613318 7.20037743 -1.9375 11.1875 C-2.22818359 11.93708984 -2.51886719 12.68667969 -2.81835938 13.45898438 C-3.53725036 15.30924477 -4.26754653 17.15506648 -5 19 C-5.99 18.34 -6.98 17.68 -8 17 C-8 16.34 -8 15.68 -8 15 C-7.34 14.67 -6.68 14.34 -6 14 C-5.27306096 12.02111039 -4.60183749 10.02045442 -4 8 C-3.34 8 -2.68 8 -2 8 C-2.33 7.01 -2.66 6.02 -3 5 C-2.67 4.67 -2.34 4.34 -2 4 C-2.33 3.34 -2.66 2.68 -3 2 C-2.01 2 -1.02 2 0 2 C0 1.34 0 0.68 0 0 Z " fill="#A6A6A7" transform="translate(385,121)"/>
<path d="M0 0 C1.85274014 3.12649899 2.37198336 5.37316225 2 9 C0.42105792 11.36841312 -0.9754262 13.06745228 -3 15 C-3.36263859 9.1977825 -2.25684543 5.36000789 0 0 Z " fill="#D7D7D9" transform="translate(266,283)"/>
<path d="M0 0 C0.66 0.99 1.32 1.98 2 3 C2.99 2.67 3.98 2.34 5 2 C4.67 3.65 4.34 5.3 4 7 C3.01 7.33 2.02 7.66 1 8 C-0.66710346 9.49985609 -0.66710346 9.49985609 -2 11 C-3 9 -3 9 -2.44140625 6.8359375 C-2.15136719 6.02382812 -1.86132812 5.21171875 -1.5625 4.375 C-1.27503906 3.55773437 -0.98757813 2.74046875 -0.69140625 1.8984375 C-0.46324219 1.27195312 -0.23507812 0.64546875 0 0 Z " fill="#AAABAC" transform="translate(333,84)"/>
<path d="M0 0 C0.33 0.66 0.66 1.32 1 2 C1.66 2 2.32 2 3 2 C3 2.66 3 3.32 3 4 C3.66 4 4.32 4 5 4 C5 4.66 5 5.32 5 6 C5.66 6 6.32 6 7 6 C6.67 7.65 6.34 9.3 6 11 C5.01 11 4.02 11 3 11 C2.49384702 9.73160474 1.99530901 8.46016898 1.5 7.1875 C1.2215625 6.47980469 0.943125 5.77210938 0.65625 5.04296875 C0 3 0 3 0 0 Z " fill="#9B9B9C" transform="translate(244,501)"/>
<path d="M0 0 C0.66 0 1.32 0 2 0 C5.40027839 3.50331713 6.54961229 6.15833214 7 11 C6.01 11.66 5.02 12.32 4 13 C3.32942113 11.2097939 2.6636531 9.41778511 2 7.625 C1.62875 6.62726563 1.2575 5.62953125 0.875 4.6015625 C0 2 0 2 0 0 Z " fill="#ABABAC" transform="translate(213,418)"/>
<path d="M0 0 C2 3 2 3 1.9375 6.5 C1 10 1 10 -1.5625 11.9375 C-2.366875 12.288125 -3.17125 12.63875 -4 13 C-3.52140759 11.39566191 -3.04210442 9.79153584 -2.5625 8.1875 C-2.29566406 7.29417969 -2.02882813 6.40085937 -1.75390625 5.48046875 C-1.19612127 3.64526945 -0.60655425 1.81966274 0 0 Z " fill="#A1A1A3" transform="translate(338,70)"/>
<path d="M0 0 C0.66 0 1.32 0 2 0 C0.84941444 5.39795989 -0.42421759 10.70987333 -2 16 C-2.33 16 -2.66 16 -3 16 C-3.0975279 11.22113282 -2.92132827 6.69877416 -2 2 C-1.34 1.34 -0.68 0.68 0 0 Z " fill="#A9A9AA" transform="translate(425,2)"/>
<path d="M0 0 C1.32 0 2.64 0 4 0 C3.54705135 1.75140143 3.08741252 3.50107344 2.625 5.25 C2.36976563 6.22453125 2.11453125 7.1990625 1.8515625 8.203125 C1.10401491 10.65837303 0.22876183 12.75617405 -1 15 C-1.33 15 -1.66 15 -2 15 C-2 13.35 -2 11.7 -2 10 C-1.34 10 -0.68 10 0 10 C0 6.7 0 3.4 0 0 Z " fill="#8F8F90" transform="translate(288,391)"/>
<path d="M0 0 C0.99 0.99 1.98 1.98 3 3 C2.67 3.99 2.34 4.98 2 6 C1.67 5.67 1.34 5.34 1 5 C0.34 7.31 -0.32 9.62 -1 12 C-1.99 12 -2.98 12 -4 12 C-3.52494322 10.18641846 -3.04483958 8.37415821 -2.5625 6.5625 C-2.29566406 5.55316406 -2.02882813 4.54382813 -1.75390625 3.50390625 C-1 1 -1 1 0 0 Z " fill="#A7A7A8" transform="translate(362,1)"/>
<path d="M0 0 C0.144375 0.598125 0.28875 1.19625 0.4375 1.8125 C0.8872439 3.56150404 1.42892341 5.28677023 2 7 C0.75 10.125 0.75 10.125 -1 13 C-1.99 13.33 -2.98 13.66 -4 14 C-3.52188823 12.22888156 -3.0424722 10.45811517 -2.5625 8.6875 C-2.29566406 7.70136719 -2.02882813 6.71523438 -1.75390625 5.69921875 C-1.21920575 3.78482474 -0.62855462 1.88566385 0 0 Z " fill="#98989A" transform="translate(273,259)"/>
<path d="M0 0 C1.37068577 4.79740018 1.30052829 8.52002385 -1 13 C-1.99 13.33 -2.98 13.66 -4 14 C-3.52372025 12.04096255 -3.04388577 10.08278903 -2.5625 8.125 C-2.29566406 7.03445312 -2.02882813 5.94390625 -1.75390625 4.8203125 C-1 2 -1 2 0 0 Z " fill="#949595" transform="translate(306,163)"/>
<path d="M0 0 C1.32 0 2.64 0 4 0 C3.38461538 5.53846154 3.38461538 5.53846154 1.4375 7.875 C0.7259375 8.431875 0.7259375 8.431875 0 9 C-1.0625 7.1875 -1.0625 7.1875 -2 5 C-1 2 -1 2 0 0 Z " fill="#ACACAE" transform="translate(176,310)"/>
<path d="M0 0 C3.57011026 3.732388 4.10913442 8.0949989 5 13 C4.67 12.34 4.34 11.68 4 11 C3.34 11 2.68 11 2 11 C0.19769832 7.17010894 -0.19622241 4.21878192 0 0 Z " fill="#929294" transform="translate(219,254)"/>
<path d="M0 0 C0.99 0.33 1.98 0.66 3 1 C2.01 4.96 1.02 8.92 0 13 C-0.33 12.01 -0.66 11.02 -1 10 C-1.66 10 -2.32 10 -3 10 C-2.67 9.34 -2.34 8.68 -2 8 C-1.34 8.33 -0.68 8.66 0 9 C-0.185625 7.88625 -0.37125 6.7725 -0.5625 5.625 C-1 2 -1 2 0 0 Z " fill="#A5A5A6" transform="translate(339,246)"/>
<path d="M0 0 C0.66 0 1.32 0 2 0 C1.343621 4.48525648 0.29925791 8.66914029 -1 13 C-2.53690745 10.58959839 -3.09752136 9.49917715 -2.5390625 6.640625 C-2.23742187 5.85171875 -1.93578125 5.0628125 -1.625 4.25 C-1.32851563 3.45078125 -1.03203125 2.6515625 -0.7265625 1.828125 C-0.48679687 1.22484375 -0.24703125 0.6215625 0 0 Z " fill="#979899" transform="translate(281,415)"/>
<path d="M0 0 C1.485 0.99 1.485 0.99 3 2 C2.67 2.66 2.34 3.32 2 4 C2.66 4 3.32 4 4 4 C5 6 6 8 7 10 C6.34 10 5.68 10 5 10 C4.67 10.66 4.34 11.32 4 12 C3.32645501 10.56570999 2.66140299 9.12742943 2 7.6875 C1.62875 6.88699219 1.2575 6.08648437 0.875 5.26171875 C0 3 0 3 0 0 Z " fill="#929294" transform="translate(220,437)"/>
<path d="M0 0 C2.475 0.99 2.475 0.99 5 2 C5.33 1.34 5.66 0.68 6 0 C5.47731534 2.76276177 4.89130413 5.3260876 4 8 C3.34 8 2.68 8 2 8 C1.34 5.36 0.68 2.72 0 0 Z " fill="#1D1D1D" transform="translate(245,326)"/>
<path d="M0 0 C0.99 0 1.98 0 3 0 C2.34 3.3 1.68 6.6 1 10 C0.67 9.34 0.34 8.68 0 8 C-0.66 8 -1.32 8 -2 8 C-1.67 6.35 -1.34 4.7 -1 3 C-0.34 3 0.32 3 1 3 C0.67 2.01 0.34 1.02 0 0 Z " fill="#B3B4B5" transform="translate(329,275)"/>
<path d="M0 0 C0.99 0 1.98 0 3 0 C3.98120464 3.05263664 3.98120464 4.94736336 3 8 C3.66 8.33 4.32 8.66 5 9 C4.01 10.485 4.01 10.485 3 12 C2.49440092 10.56445975 1.9957251 9.1264798 1.5 7.6875 C1.2215625 6.88699219 0.943125 6.08648437 0.65625 5.26171875 C0 3 0 3 0 0 Z " fill="#A3A4A5" transform="translate(138,213)"/>
<path d="M0 0 C0.99 0.33 1.98 0.66 3 1 C3.125 3.875 3.125 3.875 3 7 C2.34 7.66 1.68 8.32 1 9 C1 8.01 1 7.02 1 6 C0.34 6 -0.32 6 -1 6 C-1.042721 4.33388095 -1.04063832 2.66617115 -1 1 C-0.67 0.67 -0.34 0.34 0 0 Z " fill="#ACACAE" transform="translate(250,498)"/>
<path d="M0 0 C0.66 0 1.32 0 2 0 C0.25740319 9.59453303 0.25740319 9.59453303 -3 13 C-3 11.35 -3 9.7 -3 8 C-2.34 8 -1.68 8 -1 8 C-1.020625 7.05125 -1.04125 6.1025 -1.0625 5.125 C-1 2 -1 2 0 0 Z " fill="#8E8E8E" transform="translate(336,259)"/>
<path d="M0 0 C0.33 0 0.66 0 1 0 C0.48594831 4.96916636 -0.23384882 9.29026351 -2 14 C-2.33 14 -2.66 14 -3 14 C-2.88512252 12.41590006 -2.75765492 10.83271037 -2.625 9.25 C-2.55539062 8.36828125 -2.48578125 7.4865625 -2.4140625 6.578125 C-2.00149945 4.00933618 -1.28839043 2.24158985 0 0 Z " fill="#A6A6A8" transform="translate(350,219)"/>
<path d="M0 0 C1.39195915 4.17587745 -0.17676781 6.13474776 -2 10 C-2.66 10 -3.32 10 -4 10 C-3.71872579 8.51882199 -3.42466268 7.04006751 -3.125 5.5625 C-2.96257812 4.73878906 -2.80015625 3.91507813 -2.6328125 3.06640625 C-2.42398437 2.38449219 -2.21515625 1.70257813 -2 1 C-1.34 0.67 -0.68 0.34 0 0 Z " fill="#A0A0A0" transform="translate(355,208)"/>
<path d="M0 0 C0.99 0.33 1.98 0.66 3 1 C4.1875 4.5625 4.1875 4.5625 5 8 C4.34 8.66 3.68 9.32 3 10 C0 3.375 0 3.375 0 0 Z " fill="#8E8E8F" transform="translate(238,485)"/>
<path d="M0 0 C0.99 0.33 1.98 0.66 3 1 C4.1875 4.5625 4.1875 4.5625 5 8 C4.34 8.66 3.68 9.32 3 10 C0 3.375 0 3.375 0 0 Z " fill="#99999B" transform="translate(182,334)"/>
<path d="M0 0 C0.33 0.66 0.66 1.32 1 2 C1.66 2 2.32 2 3 2 C4.4783226 4.95664519 4.06032783 7.74229737 4 11 C1.6870518 8.6870518 1.50419025 7.52095125 0.875 4.375 C0.70742187 3.55773437 0.53984375 2.74046875 0.3671875 1.8984375 C0.24601563 1.27195312 0.12484375 0.64546875 0 0 Z " fill="#7D7D7E" transform="translate(170,301)"/>
<path d="M0 0 C1.98 0.99 1.98 0.99 4 2 C3.34 4.31 2.68 6.62 2 9 C-0.29013653 5.5647952 -0.17842973 4.014669 0 0 Z " fill="#ACACAE" transform="translate(133,197)"/>
<path d="M0 0 C0.33 0 0.66 0 1 0 C1.390625 5.95703125 1.390625 5.95703125 1 8 C-0.32 8.99 -1.64 9.98 -3 11 C-2.01 7.37 -1.02 3.74 0 0 Z " fill="#8E8F8F" transform="translate(262,291)"/>
<path d="M0 0 C0.66 0 1.32 0 2 0 C1.34 2.97 0.68 5.94 0 9 C-0.66 8.67 -1.32 8.34 -2 8 C-2.125 5.125 -2.125 5.125 -2 2 C-1.34 1.34 -0.68 0.68 0 0 Z " fill="#BBBBBC" transform="translate(408,51)"/>
<path d="M0 0 C0.33 0 0.66 0 1 0 C1.33 2.64 1.66 5.28 2 8 C0.68 8 -0.64 8 -2 8 C-1.47731534 5.23723823 -0.89130413 2.6739124 0 0 Z " fill="#9B9B9B" transform="translate(328,99)"/>
<path d="M0 0 C0.99 0.33 1.98 0.66 3 1 C2.67 1.99 2.34 2.98 2 4 C2.66 4 3.32 4 4 4 C4 5.98 4 7.96 4 10 C1.04816899 7.04816899 0.91336012 4.04488053 0 0 Z " fill="#858586" transform="translate(206,399)"/>
<path d="M0 0 C0.66 0 1.32 0 2 0 C3.25664978 2.90600261 4 4.79604584 4 8 C3.34 8 2.68 8 2 8 C0.23537317 4.91190305 0 3.76687864 0 0 Z " fill="#B0B0B1" transform="translate(237,307)"/>
<path d="M0 0 C1.5625 1.75 1.5625 1.75 3 4 C2.6875 6.25 2.6875 6.25 2 8 C2 7.34 2 6.68 2 6 C1.01 6.33 0.02 6.66 -1 7 C-1.625 5.1875 -1.625 5.1875 -2 3 C-1.34 2.01 -0.68 1.02 0 0 Z " fill="#DCDCDE" transform="translate(211,234)"/>
<path d="M0 0 C0.33 0 0.66 0 1 0 C1.36923077 5.41538462 1.36923077 5.41538462 -0.5 8.375 C-0.995 8.91125 -1.49 9.4475 -2 10 C-3.39195915 5.82412255 -1.82323219 3.86525224 0 0 Z " fill="#ABABAD" transform="translate(373,153)"/>
<path d="M0 0 C0.66 0 1.32 0 2 0 C1.34 2.64 0.68 5.28 0 8 C-0.66 7.34 -1.32 6.68 -2 6 C-1.44444444 1.44444444 -1.44444444 1.44444444 0 0 Z " fill="#989899" transform="translate(394,93)"/>
<path d="M0 0 C0.33 0.99 0.66 1.98 1 3 C-0.3125 5.1875 -0.3125 5.1875 -2 7 C-2.66 7 -3.32 7 -4 7 C-3.39816251 4.97954558 -2.72693904 2.97888961 -2 1 C-1.34 0.67 -0.68 0.34 0 0 Z " fill="#A7A7A8" transform="translate(316,319)"/>
<path d="M0 0 C0.33 0.99 0.66 1.98 1 3 C-0.32 4.32 -1.64 5.64 -3 7 C-3.66 6.67 -4.32 6.34 -5 6 C-3.74821404 3.49642808 -2.00018842 1.93566621 0 0 Z " fill="#D4D4D6" transform="translate(316,316)"/>
<path d="M0 0 C0.33 0.66 0.66 1.32 1 2 C1.66 2 2.32 2 3 2 C3.33 2.99 3.66 3.98 4 5 C3.67 5.66 3.34 6.32 3 7 C3.66 7.33 4.32 7.66 5 8 C4.34 8.66 3.68 9.32 3 10 C0 3.375 0 3.375 0 0 Z " fill="#8D8D8E" transform="translate(145,233)"/>
</svg>
